<svg xmlns="http://www.w3.org/2000/svg" width="90" height="90" viewBox="0 0 90 90" fill="none">
  <path d="M14 18 L14 24 M11 21 L17 21" stroke="#C87A4A" stroke-width="1.8" stroke-linecap="round" opacity="0.8"/>
  <path d="M76 14 L76 20 M73 17 L79 17" stroke="#C87A4A" stroke-width="1.8" stroke-linecap="round" opacity="0.8"/>
  <path d="M82 38 L82 44 M79 41 L85 41" stroke="#C87A4A" stroke-width="1.6" stroke-linecap="round" opacity="0.6"/>
  <path d="M68 8 L72 14 L78 6" stroke="#7A9B5C" stroke-width="2.5" stroke-linecap="round" stroke-linejoin="round" fill="none"/>
  <path d="M40 14 Q45 8 50 14" stroke="#8B7355" stroke-width="2.5" stroke-linecap="round" fill="none"/>
  <ellipse cx="18" cy="48" rx="6" ry="10" fill="#A89070" transform="rotate(-25 18 48)"/>
  <ellipse cx="72" cy="48" rx="6" ry="10" fill="#A89070" transform="rotate(25 72 48)"/>
  <ellipse cx="45" cy="50" rx="25" ry="28" fill="#D4B891"/>
  <ellipse cx="45" cy="57" rx="15" ry="17" fill="#F5EBD3"/>
  <path d="M34 42 Q38 38 42 42" stroke="#2A1F15" stroke-width="2" stroke-linecap="round" fill="none"/>
  <path d="M48 42 Q52 38 56 42" stroke="#2A1F15" stroke-width="2" stroke-linecap="round" fill="none"/>
  <path d="M45 47 L42 51 L48 51 Z" fill="#C87A4A"/>
  <ellipse cx="33" cy="50" rx="3.5" ry="2.3" fill="#E8B894" opacity="0.85"/>
  <ellipse cx="57" cy="50" rx="3.5" ry="2.3" fill="#E8B894" opacity="0.85"/>
  <path d="M38 76 L35 81 M38 76 L38 82 M38 76 L41 81" stroke="#8B7355" stroke-width="1.6" stroke-linecap="round"/>
  <path d="M52 76 L49 81 M52 76 L52 82 M52 76 L55 81" stroke="#8B7355" stroke-width="1.6" stroke-linecap="round"/>
</svg>
