<svg xmlns="http://www.w3.org/2000/svg" width="90" height="90" viewBox="0 0 90 90" fill="none">
  <circle cx="62" cy="20" r="2.5" fill="#A89070" opacity="0.5"/>
  <circle cx="70" cy="20" r="2.5" fill="#A89070" opacity="0.7"/>
  <circle cx="78" cy="20" r="2.5" fill="#A89070" opacity="0.9"/>
  <path d="M35 18 Q40 12 45 18" stroke="#8B7355" stroke-width="2.5" stroke-linecap="round" fill="none"/>
  <ellipse cx="13" cy="54" rx="6" ry="10" fill="#A89070"/>
  <ellipse cx="67" cy="54" rx="6" ry="10" fill="#A89070"/>
  <ellipse cx="40" cy="54" rx="25" ry="28" fill="#D4B891"/>
  <ellipse cx="40" cy="61" rx="15" ry="17" fill="#F5EBD3"/>
  <circle cx="33" cy="46" r="4.5" fill="white"/>
  <circle cx="47" cy="46" r="4.5" fill="white"/>
  <circle cx="33.5" cy="46.5" r="2.2" fill="#2A1F15"/>
  <circle cx="47.5" cy="46.5" r="2.2" fill="#2A1F15"/>
  <path d="M40 51 L37 55 L43 55 Z" fill="#C87A4A"/>
  <ellipse cx="28" cy="54" rx="3.5" ry="2.3" fill="#E8B894" opacity="0.75"/>
  <ellipse cx="52" cy="54" rx="3.5" ry="2.3" fill="#E8B894" opacity="0.75"/>
  <path d="M33 80 L30 85 M33 80 L33 86 M33 80 L36 85" stroke="#8B7355" stroke-width="1.6" stroke-linecap="round"/>
  <path d="M47 80 L44 85 M47 80 L47 86 M47 80 L50 85" stroke="#8B7355" stroke-width="1.6" stroke-linecap="round"/>
</svg>
