<svg xmlns="http://www.w3.org/2000/svg" width="90" height="90" viewBox="0 0 90 90" fill="none">
  <path d="M14 18 L14 24 M11 21 L17 21" stroke="#C87A4A" stroke-width="1.8" stroke-linecap="round"/>
  <path d="M76 14 L76 20 M73 17 L79 17" stroke="#C87A4A" stroke-width="1.8" stroke-linecap="round"/>
  <path d="M82 38 L82 44 M79 41 L85 41" stroke="#C87A4A" stroke-width="1.6" stroke-linecap="round" opacity="0.7"/>
  <path d="M8 44 L8 50 M5 47 L11 47" stroke="#C87A4A" stroke-width="1.6" stroke-linecap="round" opacity="0.7"/>
  <path d="M40 14 Q45 8 50 14" stroke="#8B7355" stroke-width="2.5" stroke-linecap="round" fill="none"/>
  <ellipse cx="18" cy="48" rx="6" ry="10" fill="#A89070" transform="rotate(-20 18 48)"/>
  <ellipse cx="72" cy="48" rx="6" ry="10" fill="#A89070" transform="rotate(20 72 48)"/>
  <ellipse cx="45" cy="50" rx="25" ry="28" fill="#D4B891"/>
  <ellipse cx="45" cy="57" rx="15" ry="17" fill="#F5EBD3"/>
  <circle cx="38" cy="42" r="4.5" fill="white"/>
  <circle cx="52" cy="42" r="4.5" fill="white"/>
  <circle cx="38.5" cy="42.5" r="2.2" fill="#2A1F15"/>
  <circle cx="52.5" cy="42.5" r="2.2" fill="#2A1F15"/>
  <path d="M45 47 L42 51 L48 51 Z" fill="#C87A4A"/>
  <ellipse cx="33" cy="50" rx="3.5" ry="2.3" fill="#E8B894" opacity="0.75"/>
  <ellipse cx="57" cy="50" rx="3.5" ry="2.3" fill="#E8B894" opacity="0.75"/>
  <path d="M38 76 L35 81 M38 76 L38 82 M38 76 L41 81" stroke="#8B7355" stroke-width="1.6" stroke-linecap="round"/>
  <path d="M52 76 L49 81 M52 76 L52 82 M52 76 L55 81" stroke="#8B7355" stroke-width="1.6" stroke-linecap="round"/>
</svg>
