<svg xmlns="http://www.w3.org/2000/svg" width="130" height="130" viewBox="0 0 130 130" fill="none">
  <path d="M58 22 Q65 14 72 22" stroke="#8B7355" stroke-width="3" stroke-linecap="round" fill="none"/>
  <ellipse cx="22" cy="58" rx="9" ry="14" fill="#A89070" transform="rotate(-30 22 58)"/>
  <ellipse cx="108" cy="58" rx="9" ry="14" fill="#A89070" transform="rotate(30 108 58)"/>
  <path d="M16 50 Q12 42 14 36" stroke="#A89070" stroke-width="2.5" stroke-linecap="round" fill="none"/>
  <path d="M114 50 Q118 42 116 36" stroke="#A89070" stroke-width="2.5" stroke-linecap="round" fill="none"/>
  <ellipse cx="65" cy="74" rx="36" ry="40" fill="#D4B891"/>
  <ellipse cx="65" cy="84" rx="22" ry="24" fill="#F5EBD3"/>
  <circle cx="55" cy="62" r="6.5" fill="white"/>
  <circle cx="75" cy="62" r="6.5" fill="white"/>
  <circle cx="55.5" cy="62.5" r="3" fill="#2A1F15"/>
  <circle cx="75.5" cy="62.5" r="3" fill="#2A1F15"/>
  <path d="M65 69 L61 75 L69 75 Z" fill="#C87A4A"/>
  <ellipse cx="48" cy="74" rx="5" ry="3.2" fill="#E8B894" opacity="0.75"/>
  <ellipse cx="82" cy="74" rx="5" ry="3.2" fill="#E8B894" opacity="0.75"/>
  <path d="M55 111 L52 116 M55 111 L55 117 M55 111 L58 116" stroke="#8B7355" stroke-width="2.2" stroke-linecap="round"/>
  <path d="M75 111 L72 116 M75 111 L75 117 M75 111 L78 116" stroke="#8B7355" stroke-width="2.2" stroke-linecap="round"/>
</svg>
