<svg xmlns="http://www.w3.org/2000/svg" width="90" height="90" viewBox="0 0 90 90" fill="none">
            <ellipse cx="44" cy="62" rx="22" ry="22" fill="#ADADAD"/>
            <ellipse cx="44" cy="66" rx="13" ry="13" fill="#D8D8D0"/>
            <ellipse cx="31" cy="26" rx="5" ry="11" fill="#9A9A9A" transform="rotate(-6 31 26)"/>
            <ellipse cx="57" cy="26" rx="5" ry="11" fill="#9A9A9A" transform="rotate(6 57 26)"/>
            <ellipse cx="31" cy="27" rx="3" ry="7" fill="#C8A0A0" transform="rotate(-6 31 27)" opacity="0.6"/>
            <ellipse cx="57" cy="27" rx="3" ry="7" fill="#C8A0A0" transform="rotate(6 57 27)" opacity="0.6"/>
            <ellipse cx="44" cy="48" rx="14" ry="13" fill="#ADADAD"/>
            <ellipse cx="44" cy="47" rx="2.5" ry="2" fill="#1A1A2E"/>
            <ellipse cx="38" cy="42" rx="4" ry="4" fill="white"/>
            <ellipse cx="50" cy="42" rx="4" ry="4" fill="white"/>
            <ellipse cx="39" cy="42" rx="2.5" ry="2.5" fill="#1A1A2E"/>
            <ellipse cx="51" cy="42" rx="2.5" ry="2.5" fill="#1A1A2E"/>
            <path d="M 56 60 Q 64 52 60 46" stroke="#9A9A9A" stroke-width="5" stroke-linecap="round" fill="none"/>
            <ellipse cx="59" cy="44" rx="5" ry="4" fill="#8A8A8A"/>
            <path d="M 32 58 Q 22 46 26 34" stroke="#9A9A9A" stroke-width="5" stroke-linecap="round" fill="none"/>
            <polygon points="26,20 28,28 36,28 30,33 32,41 26,36 20,41 22,33 16,28 24,28" fill="#F4C430" transform="scale(0.7) translate(10, 8)"/>
            <ellipse cx="44" cy="82" rx="7" ry="4" fill="#8A8A8A"/>
          </svg>
