<svg xmlns="http://www.w3.org/2000/svg" width="90" height="90" viewBox="0 0 90 90" fill="none">
            <line x1="45" y1="8" x2="45" y2="18" stroke="#ADADAD" stroke-width="2.5" stroke-linecap="round" opacity="0.8"/>
            <line x1="68" y1="14" x2="63" y2="23" stroke="#ADADAD" stroke-width="2.5" stroke-linecap="round" opacity="0.6"/>
            <line x1="78" y1="35" x2="69" y2="38" stroke="#ADADAD" stroke-width="2.5" stroke-linecap="round" opacity="0.4"/>
            <line x1="22" y1="14" x2="27" y2="23" stroke="#ADADAD" stroke-width="2.5" stroke-linecap="round" opacity="0.6"/>
            <line x1="12" y1="35" x2="21" y2="38" stroke="#ADADAD" stroke-width="2.5" stroke-linecap="round" opacity="0.4"/>
            <ellipse cx="45" cy="56" rx="22" ry="22" fill="#ADADAD"/>
            <ellipse cx="45" cy="60" rx="13" ry="13" fill="#D8D8D0"/>
            <ellipse cx="32" cy="24" rx="5" ry="11" fill="#9A9A9A" transform="rotate(-30 32 24)"/>
            <ellipse cx="58" cy="22" rx="5" ry="11" fill="#9A9A9A" transform="rotate(30 58 22)"/>
            <ellipse cx="32" cy="25" rx="3" ry="7" fill="#C8A0A0" transform="rotate(-30 32 25)" opacity="0.6"/>
            <ellipse cx="58" cy="23" rx="3" ry="7" fill="#C8A0A0" transform="rotate(30 58 23)" opacity="0.6"/>
            <ellipse cx="45" cy="42" rx="14" ry="13" fill="#ADADAD"/>
            <path d="M 37 37 Q 40 35 43 37" stroke="#1A1A2E" stroke-width="2" fill="none" stroke-linecap="round"/>
            <path d="M 47 37 Q 50 35 53 37" stroke="#1A1A2E" stroke-width="2" fill="none" stroke-linecap="round"/>
            <path d="M 28 52 Q 14 50 10 44" stroke="#9A9A9A" stroke-width="5" stroke-linecap="round" fill="none"/>
            <path d="M 62 52 Q 76 50 80 44" stroke="#9A9A9A" stroke-width="5" stroke-linecap="round" fill="none"/>
            <ellipse cx="45" cy="78" rx="7" ry="4" fill="#8A8A8A"/>
          </svg>
