<svg xmlns="http://www.w3.org/2000/svg" width="200" height="200" viewBox="0 0 200 200" fill="none">
            <ellipse cx="100" cy="130" rx="50" ry="52" fill="#ADADAD"/>
            <ellipse cx="100" cy="136" rx="30" ry="32" fill="#D8D8D0"/>
            <ellipse cx="92" cy="126" rx="4" ry="5" fill="#B0B0A8" opacity="0.5"/>
            <ellipse cx="108" cy="124" rx="3" ry="4" fill="#B0B0A8" opacity="0.4"/>
            <ellipse cx="76" cy="50" rx="10" ry="22" fill="#9A9A9A" transform="rotate(-10 76 50)"/>
            <ellipse cx="124" cy="50" rx="10" ry="22" fill="#9A9A9A" transform="rotate(10 124 50)"/>
            <ellipse cx="76" cy="52" rx="6" ry="14" fill="#C8A0A0" transform="rotate(-10 76 52)" opacity="0.6"/>
            <ellipse cx="124" cy="52" rx="6" ry="14" fill="#C8A0A0" transform="rotate(10 124 52)" opacity="0.6"/>
            <ellipse cx="100" cy="104" rx="36" ry="32" fill="#ADADAD"/>
            <ellipse cx="100" cy="100" rx="5" ry="4" fill="#1A1A2E"/>
            <ellipse cx="86" cy="91" rx="8" ry="9" fill="white"/>
            <ellipse cx="114" cy="91" rx="8" ry="9" fill="white"/>
            <ellipse cx="87" cy="91" rx="5" ry="6" fill="#1A1A2E"/>
            <ellipse cx="115" cy="91" rx="5" ry="6" fill="#1A1A2E"/>
            <circle cx="89" cy="89" r="1.5" fill="white"/>
            <circle cx="117" cy="89" r="1.5" fill="white"/>
            <line x1="58" y1="100" x2="82" y2="103" stroke="#666" stroke-width="1.2" stroke-linecap="round" opacity="0.5"/>
            <line x1="56" y1="106" x2="81" y2="107" stroke="#666" stroke-width="1.2" stroke-linecap="round" opacity="0.5"/>
            <line x1="118" y1="103" x2="142" y2="100" stroke="#666" stroke-width="1.2" stroke-linecap="round" opacity="0.5"/>
            <line x1="119" y1="107" x2="144" y2="106" stroke="#666" stroke-width="1.2" stroke-linecap="round" opacity="0.5"/>
            <path d="M 62 132 Q 52 150 65 162" stroke="#9A9A9A" stroke-width="10" stroke-linecap="round" fill="none"/>
            <path d="M 138 132 Q 148 150 135 162" stroke="#9A9A9A" stroke-width="10" stroke-linecap="round" fill="none"/>
            <ellipse cx="100" cy="158" rx="28" ry="28" fill="#FFF3A0" opacity="0.35"/>
            <rect x="86" y="148" width="28" height="24" rx="6" fill="#F0A500"/>
            <rect x="88" y="150" width="24" height="20" rx="4" fill="#FFD060"/>
            <rect x="91" y="143" width="18" height="6" rx="3" fill="#D08000"/>
            <ellipse cx="100" cy="160" rx="8" ry="7" fill="white" opacity="0.5"/>
          </svg>
