<svg xmlns="http://www.w3.org/2000/svg" width="90" height="90" viewBox="0 0 90 90" fill="none">
            <circle cx="18" cy="22" r="3" fill="#F4C430" opacity="0.8"/>
            <circle cx="72" cy="18" r="2" fill="#F4C430" opacity="0.7"/>
            <circle cx="78" cy="40" r="2.5" fill="#F4C430" opacity="0.6"/>
            <circle cx="12" cy="48" r="2" fill="#74B883" opacity="0.6"/>
            <ellipse cx="45" cy="62" rx="22" ry="22" fill="#ADADAD"/>
            <ellipse cx="45" cy="66" rx="13" ry="13" fill="#D8D8D0"/>
            <ellipse cx="32" cy="24" rx="5" ry="12" fill="#9A9A9A" transform="rotate(-6 32 24)"/>
            <ellipse cx="58" cy="24" rx="5" ry="12" fill="#9A9A9A" transform="rotate(6 58 24)"/>
            <ellipse cx="32" cy="25" rx="3" ry="7" fill="#C8A0A0" transform="rotate(-6 32 25)" opacity="0.6"/>
            <ellipse cx="58" cy="25" rx="3" ry="7" fill="#C8A0A0" transform="rotate(6 58 25)" opacity="0.6"/>
            <ellipse cx="45" cy="48" rx="14" ry="13" fill="#ADADAD"/>
            <ellipse cx="38" cy="43" rx="5" ry="5.5" fill="white"/>
            <ellipse cx="52" cy="43" rx="5" ry="5.5" fill="white"/>
            <ellipse cx="38.5" cy="43" rx="3.5" ry="4" fill="#1A1A2E"/>
            <ellipse cx="52.5" cy="43" rx="3.5" ry="4" fill="#1A1A2E"/>
            <circle cx="40" cy="41" r="1.2" fill="white"/>
            <circle cx="54" cy="41" r="1.2" fill="white"/>
            <path d="M 37 52 Q 45 58 53 52" stroke="#1A1A2E" stroke-width="2" fill="none" stroke-linecap="round"/>
            <path d="M 30 58 Q 18 44 20 32" stroke="#9A9A9A" stroke-width="5" stroke-linecap="round" fill="none"/>
            <path d="M 60 58 Q 72 44 70 32" stroke="#9A9A9A" stroke-width="5" stroke-linecap="round" fill="none"/>
            <ellipse cx="45" cy="82" rx="7" ry="4" fill="#8A8A8A"/>
          </svg>
