<svg xmlns="http://www.w3.org/2000/svg" width="90" height="90" viewBox="0 0 90 90" fill="none">
            <ellipse cx="45" cy="62" rx="22" ry="22" fill="#ADADAD"/>
            <ellipse cx="45" cy="66" rx="13" ry="13" fill="#D8D8D0"/>
            <ellipse cx="32" cy="28" rx="5" ry="11" fill="#9A9A9A" transform="rotate(-18 32 28)"/>
            <ellipse cx="58" cy="28" rx="5" ry="11" fill="#9A9A9A" transform="rotate(18 58 28)"/>
            <ellipse cx="32" cy="29" rx="3" ry="7" fill="#C8A0A0" transform="rotate(-18 32 29)" opacity="0.6"/>
            <ellipse cx="58" cy="29" rx="3" ry="7" fill="#C8A0A0" transform="rotate(18 58 29)" opacity="0.6"/>
            <ellipse cx="45" cy="48" rx="14" ry="14" fill="#ADADAD"/>
            <ellipse cx="45" cy="47" rx="2.5" ry="2" fill="#1A1A2E"/>
            <ellipse cx="38" cy="42" rx="4.5" ry="4.5" fill="white"/>
            <ellipse cx="52" cy="42" rx="4.5" ry="4.5" fill="white"/>
            <ellipse cx="38.5" cy="43" rx="3" ry="3" fill="#1A1A2E"/>
            <ellipse cx="52.5" cy="43" rx="3" ry="3" fill="#1A1A2E"/>
            <path d="M 39 52 Q 45 50 51 52" stroke="#1A1A2E" stroke-width="1.5" fill="none" stroke-linecap="round"/>
            <path d="M 30 56 Q 18 52 12 54" stroke="#9A9A9A" stroke-width="5" stroke-linecap="round" fill="none"/>
            <path d="M 60 56 Q 72 52 78 54" stroke="#9A9A9A" stroke-width="5" stroke-linecap="round" fill="none"/>
            <ellipse cx="11" cy="53" rx="5" ry="4" fill="#8A8A8A"/>
            <ellipse cx="79" cy="53" rx="5" ry="4" fill="#8A8A8A"/>
            <ellipse cx="45" cy="82" rx="7" ry="4" fill="#8A8A8A"/>
          </svg>
