<svg xmlns="http://www.w3.org/2000/svg" width="130" height="130" viewBox="0 0 130 130" fill="none">
            <rect x="10" y="108" width="110" height="6" rx="3" fill="#DDD8CC"/>
            <rect x="50" y="108" width="12" height="18" rx="6" fill="#9A9A9A"/>
            <rect x="68" y="108" width="12" height="18" rx="6" fill="#9A9A9A"/>
            <ellipse cx="56" cy="126" rx="8" ry="5" fill="#7A7A7A"/>
            <ellipse cx="74" cy="126" rx="8" ry="5" fill="#7A7A7A"/>
            <ellipse cx="65" cy="88" rx="34" ry="30" fill="#ADADAD"/>
            <ellipse cx="65" cy="92" rx="20" ry="18" fill="#D8D8D0"/>
            <ellipse cx="48" cy="44" rx="7" ry="16" fill="#9A9A9A" transform="rotate(-8 48 44)"/>
            <ellipse cx="82" cy="44" rx="7" ry="16" fill="#9A9A9A" transform="rotate(8 82 44)"/>
            <ellipse cx="48" cy="45" rx="4" ry="10" fill="#C8A0A0" transform="rotate(-8 48 45)" opacity="0.6"/>
            <ellipse cx="82" cy="45" rx="4" ry="10" fill="#C8A0A0" transform="rotate(8 82 45)" opacity="0.6"/>
            <ellipse cx="65" cy="68" rx="22" ry="20" fill="#ADADAD"/>
            <ellipse cx="65" cy="66" rx="4" ry="3" fill="#1A1A2E"/>
            <ellipse cx="55" cy="58" rx="5" ry="6" fill="white"/>
            <ellipse cx="75" cy="58" rx="5" ry="6" fill="white"/>
            <ellipse cx="56" cy="58" rx="3" ry="4" fill="#1A1A2E"/>
            <ellipse cx="76" cy="58" rx="3" ry="4" fill="#1A1A2E"/>
            <circle cx="57" cy="57" r="1" fill="white"/>
            <circle cx="77" cy="57" r="1" fill="white"/>
            <line x1="36" y1="67" x2="52" y2="68" stroke="#888" stroke-width="1" stroke-linecap="round" opacity="0.5"/>
            <line x1="78" y1="68" x2="94" y2="67" stroke="#888" stroke-width="1" stroke-linecap="round" opacity="0.5"/>
            <path d="M 88 82 Q 100 70 96 56" stroke="#9A9A9A" stroke-width="7" stroke-linecap="round" fill="none"/>
            <polygon points="96,56 96,42 108,49" fill="#F4824A"/>
            <path d="M 42 86 Q 36 96 40 104" stroke="#9A9A9A" stroke-width="7" stroke-linecap="round" fill="none"/>
          </svg>
