<svg xmlns="http://www.w3.org/2000/svg" width="90" height="90" viewBox="0 0 90 90" fill="none">
            <ellipse cx="45" cy="62" rx="22" ry="24" fill="#ADADAD"/>
            <ellipse cx="45" cy="66" rx="13" ry="14" fill="#D8D8D0"/>
            <ellipse cx="32" cy="26" rx="5" ry="11" fill="#9A9A9A" transform="rotate(-6 32 26)"/>
            <ellipse cx="58" cy="26" rx="5" ry="11" fill="#9A9A9A" transform="rotate(6 58 26)"/>
            <ellipse cx="32" cy="27" rx="3" ry="7" fill="#C8A0A0" transform="rotate(-6 32 27)" opacity="0.6"/>
            <ellipse cx="58" cy="27" rx="3" ry="7" fill="#C8A0A0" transform="rotate(6 58 27)" opacity="0.6"/>
            <ellipse cx="45" cy="48" rx="15" ry="13" fill="#ADADAD"/>
            <ellipse cx="45" cy="47" rx="2.5" ry="2" fill="#1A1A2E"/>
            <path d="M 38 44 Q 41 41 44 44" stroke="#1A1A2E" stroke-width="2" fill="none" stroke-linecap="round"/>
            <path d="M 46 44 Q 49 41 52 44" stroke="#1A1A2E" stroke-width="2" fill="none" stroke-linecap="round"/>
            <path d="M 34 60 Q 26 70 30 78" stroke="#9A9A9A" stroke-width="5" stroke-linecap="round" fill="none"/>
            <path d="M 56 60 Q 64 70 60 78" stroke="#9A9A9A" stroke-width="5" stroke-linecap="round" fill="none"/>
            <rect x="28" y="68" width="34" height="16" rx="2" fill="#F5F0E0"/>
            <ellipse cx="28" cy="76" rx="3" ry="8" fill="#D4C89A"/>
            <ellipse cx="62" cy="76" rx="3" ry="8" fill="#D4C89A"/>
            <line x1="34" y1="72" x2="56" y2="72" stroke="#C0B090" stroke-width="1" opacity="0.7"/>
            <line x1="36" y1="77" x2="54" y2="77" stroke="#C0B090" stroke-width="1" opacity="0.5"/>
            <ellipse cx="45" cy="84" rx="7" ry="4" fill="#8A8A8A"/>
          </svg>
