<svg xmlns="http://www.w3.org/2000/svg" width="90" height="90" viewBox="0 0 90 90" fill="none">
            <line x1="65" y1="14" x2="60" y2="22" stroke="#C8D8E8" stroke-width="2" stroke-linecap="round" opacity="0.7"/>
            <line x1="75" y1="26" x2="66" y2="28" stroke="#C8D8E8" stroke-width="2" stroke-linecap="round" opacity="0.5"/>
            <line x1="72" y1="38" x2="64" y2="34" stroke="#C8D8E8" stroke-width="2" stroke-linecap="round" opacity="0.4"/>
            <circle cx="64" cy="26" r="12" fill="none" stroke="#9ABCCC" stroke-width="3" transform="rotate(30 64 26)"/>
            <circle cx="64" cy="26" r="9" fill="#D6EEF8" opacity="0.8" transform="rotate(30 64 26)"/>
            <line x1="73" y1="35" x2="80" y2="44" stroke="#7AACCB" stroke-width="3" stroke-linecap="round" transform="rotate(30 73 35)"/>
            <ellipse cx="40" cy="64" rx="22" ry="22" fill="#ADADAD"/>
            <ellipse cx="40" cy="68" rx="13" ry="13" fill="#D8D8D0"/>
            <ellipse cx="28" cy="30" rx="5" ry="11" fill="#9A9A9A" transform="rotate(-8 28 30)"/>
            <ellipse cx="54" cy="28" rx="5" ry="11" fill="#9A9A9A" transform="rotate(10 54 28)"/>
            <ellipse cx="28" cy="31" rx="3" ry="7" fill="#C8A0A0" transform="rotate(-8 28 31)" opacity="0.6"/>
            <ellipse cx="54" cy="29" rx="3" ry="7" fill="#C8A0A0" transform="rotate(10 54 29)" opacity="0.6"/>
            <ellipse cx="40" cy="50" rx="14" ry="13" fill="#ADADAD"/>
            <ellipse cx="41" cy="49" rx="2.5" ry="2" fill="#1A1A2E"/>
            <ellipse cx="34" cy="44" rx="4" ry="4" fill="white"/>
            <ellipse cx="46" cy="44" rx="4" ry="4" fill="white"/>
            <ellipse cx="35" cy="43" rx="2.5" ry="2.5" fill="#1A1A2E"/>
            <ellipse cx="47" cy="43" rx="2.5" ry="2.5" fill="#1A1A2E"/>
            <path d="M 54 60 Q 60 48 62 36" stroke="#9A9A9A" stroke-width="5" stroke-linecap="round" fill="none"/>
            <path d="M 26 62 Q 20 72 22 80" stroke="#9A9A9A" stroke-width="5" stroke-linecap="round" fill="none"/>
            <ellipse cx="40" cy="84" rx="7" ry="4" fill="#8A8A8A"/>
          </svg>
