<svg xmlns="http://www.w3.org/2000/svg" width="130" height="130" viewBox="0 0 130 130" fill="none">
            <path d="M 10 78 Q 50 68 110 72" stroke="#8B6A40" stroke-width="8" stroke-linecap="round" fill="none"/>
            <ellipse cx="30" cy="70" rx="10" ry="6" fill="#74B883" transform="rotate(-20 30 70)" opacity="0.7"/>
            <ellipse cx="70" cy="64" rx="10" ry="6" fill="#5A9A6A" transform="rotate(10 70 64)" opacity="0.7"/>
            <ellipse cx="100" cy="68" rx="8" ry="5" fill="#74B883" transform="rotate(-10 100 68)" opacity="0.6"/>
            <ellipse cx="65" cy="62" rx="30" ry="30" fill="#ADADAD"/>
            <ellipse cx="65" cy="66" rx="17" ry="18" fill="#D8D8D0"/>
            <ellipse cx="50" cy="22" rx="6" ry="14" fill="#9A9A9A" transform="rotate(-8 50 22)"/>
            <ellipse cx="80" cy="22" rx="6" ry="14" fill="#9A9A9A" transform="rotate(8 80 22)"/>
            <ellipse cx="50" cy="23" rx="4" ry="8" fill="#C8A0A0" transform="rotate(-8 50 23)" opacity="0.6"/>
            <ellipse cx="80" cy="23" rx="4" ry="8" fill="#C8A0A0" transform="rotate(8 80 23)" opacity="0.6"/>
            <ellipse cx="65" cy="48" rx="20" ry="18" fill="#ADADAD"/>
            <ellipse cx="65" cy="47" rx="3" ry="2.5" fill="#1A1A2E"/>
            <ellipse cx="57" cy="40" rx="5" ry="5.5" fill="white"/>
            <ellipse cx="73" cy="40" rx="5" ry="5.5" fill="white"/>
            <ellipse cx="58" cy="40" rx="3" ry="3.5" fill="#1A1A2E"/>
            <ellipse cx="74" cy="40" rx="3" ry="3.5" fill="#1A1A2E"/>
            <circle cx="59" cy="39" r="1" fill="white"/>
            <circle cx="75" cy="39" r="1" fill="white"/>
            <line x1="36" y1="48" x2="52" y2="48" stroke="#888" stroke-width="1" stroke-linecap="round" opacity="0.5"/>
            <line x1="78" y1="48" x2="94" y2="48" stroke="#888" stroke-width="1" stroke-linecap="round" opacity="0.5"/>
            <path d="M 84 64 Q 100 72 106 86" stroke="#9A9A9A" stroke-width="7" stroke-linecap="round" fill="none"/>
            <ellipse cx="108" cy="90" rx="7" ry="5" fill="#8A8A8A" transform="rotate(-20 108 90)"/>
            <path d="M 44 64 Q 40 72 44 80" stroke="#9A9A9A" stroke-width="7" stroke-linecap="round" fill="none"/>
            <path d="M 78 82 Q 90 90 86 102" stroke="#9A9A9A" stroke-width="6" stroke-linecap="round" fill="none"/>
            <ellipse cx="56" cy="90" rx="8" ry="12" fill="#9A9A9A"/>
            <ellipse cx="74" cy="90" rx="8" ry="12" fill="#8A8A8A"/>
            <ellipse cx="56" cy="100" rx="9" ry="5" fill="#7A7A7A"/>
            <ellipse cx="74" cy="100" rx="9" ry="5" fill="#7A7A7A"/>
          </svg>
