<svg xmlns="http://www.w3.org/2000/svg" width="130" height="130" viewBox="0 0 130 130" fill="none">
            <ellipse cx="62" cy="94" rx="32" ry="34" fill="#ADADAD"/>
            <ellipse cx="62" cy="98" rx="18" ry="20" fill="#D8D8D0"/>
            <ellipse cx="46" cy="42" rx="7" ry="16" fill="#9A9A9A" transform="rotate(-12 46 42)"/>
            <ellipse cx="78" cy="40" rx="7" ry="15" fill="#9A9A9A" transform="rotate(8 78 40)"/>
            <ellipse cx="46" cy="43" rx="4" ry="10" fill="#C8A0A0" transform="rotate(-12 46 43)" opacity="0.6"/>
            <ellipse cx="78" cy="41" rx="4" ry="9" fill="#C8A0A0" transform="rotate(8 78 41)" opacity="0.6"/>
            <ellipse cx="62" cy="70" rx="22" ry="20" fill="#ADADAD"/>
            <ellipse cx="63" cy="68" rx="4" ry="3" fill="#1A1A2E"/>
            <ellipse cx="53" cy="62" rx="5" ry="5" fill="white"/>
            <ellipse cx="54" cy="62" rx="3" ry="3" fill="#1A1A2E"/>
            <circle cx="55" cy="61" r="1" fill="white"/>
            <ellipse cx="73" cy="61" rx="5" ry="5" fill="white" opacity="0.6"/>
            <ellipse cx="73" cy="61" rx="3" ry="3" fill="#1A1A2E" opacity="0.6"/>
            <line x1="34" y1="68" x2="50" y2="69" stroke="#888" stroke-width="1" stroke-linecap="round" opacity="0.5"/>
            <path d="M 84 84 Q 96 70 94 54" stroke="#9A9A9A" stroke-width="7" stroke-linecap="round" fill="none"/>
            <circle cx="94" cy="46" r="16" fill="none" stroke="#9A9A9A" stroke-width="4"/>
            <circle cx="94" cy="46" r="13" fill="#D6EEF8" opacity="0.8"/>
            <circle cx="94" cy="46" r="9" fill="#B8DFF0" opacity="0.5"/>
            <line x1="106" y1="57" x2="116" y2="68" stroke="#7A7A7A" stroke-width="4" stroke-linecap="round"/>
            <path d="M 40 90 Q 34 102 38 112" stroke="#9A9A9A" stroke-width="7" stroke-linecap="round" fill="none"/>
            <ellipse cx="52" cy="124" rx="10" ry="5" fill="#8A8A8A"/>
            <ellipse cx="76" cy="124" rx="10" ry="5" fill="#8A8A8A"/>
          </svg>
