<svg xmlns="http://www.w3.org/2000/svg" width="200" height="200" viewBox="0 0 200 200" fill="none">
            <line x1="30" y1="20" x2="24" y2="40" stroke="#A8D5E2" stroke-width="2" stroke-linecap="round" opacity="0.6"/>
            <line x1="55" y1="10" x2="49" y2="30" stroke="#A8D5E2" stroke-width="2" stroke-linecap="round" opacity="0.5"/>
            <line x1="80" y1="18" x2="74" y2="38" stroke="#A8D5E2" stroke-width="2" stroke-linecap="round" opacity="0.7"/>
            <line x1="140" y1="12" x2="134" y2="32" stroke="#A8D5E2" stroke-width="2" stroke-linecap="round" opacity="0.5"/>
            <line x1="165" y1="22" x2="159" y2="42" stroke="#A8D5E2" stroke-width="2" stroke-linecap="round" opacity="0.6"/>
            <line x1="175" y1="8" x2="169" y2="28" stroke="#A8D5E2" stroke-width="2" stroke-linecap="round" opacity="0.4"/>
            <line x1="110" y1="15" x2="104" y2="35" stroke="#A8D5E2" stroke-width="2" stroke-linecap="round" opacity="0.5"/>
            <line x1="20" y1="50" x2="14" y2="70" stroke="#A8D5E2" stroke-width="2" stroke-linecap="round" opacity="0.4"/>
            <line x1="185" y1="50" x2="179" y2="70" stroke="#A8D5E2" stroke-width="2" stroke-linecap="round" opacity="0.5"/>
            <ellipse cx="78" cy="42" rx="10" ry="22" fill="#9A9A9A" transform="rotate(-12 78 42)"/>
            <ellipse cx="122" cy="42" rx="10" ry="22" fill="#9A9A9A" transform="rotate(12 122 42)"/>
            <ellipse cx="78" cy="44" rx="6" ry="14" fill="#C8A0A0" transform="rotate(-12 78 44)" opacity="0.6"/>
            <ellipse cx="122" cy="44" rx="6" ry="14" fill="#C8A0A0" transform="rotate(12 122 44)" opacity="0.6"/>
            <ellipse cx="100" cy="130" rx="52" ry="58" fill="#ADADAD"/>
            <ellipse cx="100" cy="138" rx="32" ry="36" fill="#D8D8D0"/>
            <ellipse cx="92" cy="128" rx="4" ry="6" fill="#B0B0A8" opacity="0.5"/>
            <ellipse cx="108" cy="126" rx="3" ry="5" fill="#B0B0A8" opacity="0.4"/>
            <ellipse cx="100" cy="122" rx="3" ry="4" fill="#B0B0A8" opacity="0.3"/>
            <ellipse cx="100" cy="106" rx="36" ry="32" fill="#ADADAD"/>
            <ellipse cx="100" cy="100" rx="5" ry="4" fill="#1A1A2E"/>
            <ellipse cx="86" cy="92" rx="7" ry="8" fill="white"/>
            <ellipse cx="114" cy="92" rx="7" ry="8" fill="white"/>
            <ellipse cx="87" cy="92" rx="4" ry="5" fill="#1A1A2E"/>
            <ellipse cx="115" cy="92" rx="4" ry="5" fill="#1A1A2E"/>
            <circle cx="89" cy="90" r="1.5" fill="white"/>
            <circle cx="117" cy="90" r="1.5" fill="white"/>
            <line x1="60" y1="100" x2="82" y2="103" stroke="#666" stroke-width="1.2" stroke-linecap="round" opacity="0.5"/>
            <line x1="58" y1="106" x2="81" y2="106" stroke="#666" stroke-width="1.2" stroke-linecap="round" opacity="0.5"/>
            <line x1="118" y1="103" x2="140" y2="100" stroke="#666" stroke-width="1.2" stroke-linecap="round" opacity="0.5"/>
            <line x1="119" y1="106" x2="142" y2="106" stroke="#666" stroke-width="1.2" stroke-linecap="round" opacity="0.5"/>
            <path d="M 60 128 Q 46 110 50 80" stroke="#9A9A9A" stroke-width="10" stroke-linecap="round" fill="none"/>
            <path d="M 140 128 Q 154 110 150 80" stroke="#9A9A9A" stroke-width="10" stroke-linecap="round" fill="none"/>
            <line x1="100" y1="30" x2="100" y2="78" stroke="#9A9A9A" stroke-width="3" stroke-linecap="round"/>
            <ellipse cx="100" cy="24" rx="12" ry="16" fill="#F06060"/>
            <ellipse cx="100" cy="22" rx="8" ry="10" fill="#FF7070"/>
            <circle cx="100" cy="24" r="4" fill="#FFE066"/>
            <ellipse cx="100" cy="24" rx="18" ry="18" fill="#FFE066" opacity="0.2"/>
            <ellipse cx="84" cy="184" rx="16" ry="8" fill="#8A8A8A"/>
            <ellipse cx="116" cy="184" rx="16" ry="8" fill="#8A8A8A"/>
          </svg>
