<svg xmlns="http://www.w3.org/2000/svg" width="90" height="90" viewBox="0 0 90 90" fill="none">
            <ellipse cx="45" cy="62" rx="22" ry="24" fill="#ADADAD"/>
            <ellipse cx="45" cy="66" rx="13" ry="14" fill="#D8D8D0"/>
            <ellipse cx="32" cy="28" rx="5" ry="12" fill="#9A9A9A" transform="rotate(-20 32 28)"/>
            <ellipse cx="32" cy="29" rx="3" ry="7" fill="#C8A0A0" transform="rotate(-20 32 29)" opacity="0.6"/>
            <ellipse cx="58" cy="24" rx="5" ry="12" fill="#9A9A9A" transform="rotate(5 58 24)"/>
            <ellipse cx="58" cy="25" rx="3" ry="7" fill="#C8A0A0" transform="rotate(5 58 25)" opacity="0.6"/>
            <ellipse cx="45" cy="48" rx="15" ry="14" fill="#ADADAD"/>
            <ellipse cx="45" cy="47" rx="2.5" ry="2" fill="#1A1A2E"/>
            <ellipse cx="39" cy="43" rx="4" ry="4" fill="white"/>
            <ellipse cx="51" cy="43" rx="4" ry="4" fill="white"/>
            <ellipse cx="39.5" cy="43" rx="2.5" ry="2.5" fill="#1A1A2E"/>
            <ellipse cx="51.5" cy="43" rx="2.5" ry="2.5" fill="#1A1A2E"/>
            <path d="M 56 58 Q 66 48 62 38" stroke="#9A9A9A" stroke-width="5" stroke-linecap="round" fill="none"/>
            <ellipse cx="61" cy="36" rx="5" ry="4" fill="#8A8A8A" transform="rotate(-30 61 36)"/>
            <path d="M 34 58 Q 28 66 30 74" stroke="#9A9A9A" stroke-width="5" stroke-linecap="round" fill="none"/>
            <ellipse cx="45" cy="84" rx="7" ry="4" fill="#8A8A8A"/>
          </svg>
