<svg xmlns="http://www.w3.org/2000/svg" width="90" height="90" viewBox="0 0 90 90" fill="none">
            <ellipse cx="45" cy="62" rx="22" ry="22" fill="#ADADAD"/>
            <ellipse cx="45" cy="66" rx="13" ry="13" fill="#D8D8D0"/>
            <ellipse cx="32" cy="26" rx="5" ry="11" fill="#9A9A9A" transform="rotate(-6 32 26)"/>
            <ellipse cx="58" cy="26" rx="5" ry="11" fill="#9A9A9A" transform="rotate(6 58 26)"/>
            <ellipse cx="32" cy="27" rx="3" ry="7" fill="#C8A0A0" transform="rotate(-6 32 27)" opacity="0.6"/>
            <ellipse cx="58" cy="27" rx="3" ry="7" fill="#C8A0A0" transform="rotate(6 58 27)" opacity="0.6"/>
            <ellipse cx="45" cy="48" rx="14" ry="13" fill="#ADADAD"/>
            <ellipse cx="45" cy="47" rx="2.5" ry="2" fill="#1A1A2E"/>
            <ellipse cx="39" cy="42" rx="4" ry="4" fill="white"/>
            <ellipse cx="51" cy="42" rx="4" ry="4" fill="white"/>
            <ellipse cx="39.5" cy="41" rx="2.5" ry="2.5" fill="#1A1A2E"/>
            <ellipse cx="51.5" cy="41" rx="2.5" ry="2.5" fill="#1A1A2E"/>
            <path d="M 34 58 Q 28 46 34 36" stroke="#9A9A9A" stroke-width="5" stroke-linecap="round" fill="none"/>
            <path d="M 56 58 Q 62 46 56 36" stroke="#9A9A9A" stroke-width="5" stroke-linecap="round" fill="none"/>
            <circle cx="45" cy="30" r="14" fill="#F5F5F0" stroke="#ADADAD" stroke-width="2"/>
            <circle cx="45" cy="30" r="11" fill="white"/>
            <line x1="45" y1="30" x2="45" y2="22" stroke="#1A1A2E" stroke-width="1.5" stroke-linecap="round"/>
            <line x1="45" y1="30" x2="51" y2="34" stroke="#1A1A2E" stroke-width="1.5" stroke-linecap="round"/>
            <circle cx="45" cy="30" r="1.5" fill="#1A1A2E"/>
            <ellipse cx="45" cy="82" rx="7" ry="4" fill="#8A8A8A"/>
          </svg>
