<svg xmlns="http://www.w3.org/2000/svg" width="90" height="90" viewBox="0 0 90 90" fill="none">
            <rect x="5" y="62" width="80" height="8" rx="4" fill="#DDDDD8"/>
            <rect x="5" y="68" width="80" height="22" rx="0" fill="#EFEFEB" opacity="0.5"/>
            <ellipse cx="45" cy="85" rx="28" ry="22" fill="#ADADAD"/>
            <ellipse cx="34" cy="48" rx="6" ry="14" fill="#9A9A9A" transform="rotate(-5 34 48)"/>
            <ellipse cx="56" cy="48" rx="6" ry="14" fill="#9A9A9A" transform="rotate(5 56 48)"/>
            <ellipse cx="34" cy="49" rx="4" ry="9" fill="#C8A0A0" transform="rotate(-5 34 49)" opacity="0.6"/>
            <ellipse cx="56" cy="49" rx="4" ry="9" fill="#C8A0A0" transform="rotate(5 56 49)" opacity="0.6"/>
            <ellipse cx="45" cy="66" rx="22" ry="12" fill="#ADADAD"/>
            <ellipse cx="37" cy="60" rx="6" ry="6" fill="white"/>
            <ellipse cx="53" cy="60" rx="6" ry="6" fill="white"/>
            <ellipse cx="38" cy="60" rx="4" ry="4" fill="#1A1A2E"/>
            <ellipse cx="54" cy="60" rx="4" ry="4" fill="#1A1A2E"/>
            <circle cx="39" cy="58" r="1.4" fill="white"/>
            <circle cx="55" cy="58" r="1.4" fill="white"/>
          </svg>
