<svg xmlns="http://www.w3.org/2000/svg" width="90" height="90" viewBox="0 0 90 90" fill="none">
            <ellipse cx="45" cy="62" rx="22" ry="22" fill="#ADADAD"/>
            <ellipse cx="45" cy="66" rx="13" ry="13" fill="#D8D8D0"/>
            <ellipse cx="32" cy="26" rx="5" ry="11" fill="#9A9A9A" transform="rotate(-6 32 26)"/>
            <ellipse cx="58" cy="26" rx="5" ry="11" fill="#9A9A9A" transform="rotate(6 58 26)"/>
            <ellipse cx="32" cy="27" rx="3" ry="7" fill="#C8A0A0" transform="rotate(-6 32 27)" opacity="0.6"/>
            <ellipse cx="58" cy="27" rx="3" ry="7" fill="#C8A0A0" transform="rotate(6 58 27)" opacity="0.6"/>
            <ellipse cx="45" cy="52" rx="14" ry="13" fill="#ADADAD" transform="rotate(15 45 52)"/>
            <ellipse cx="46" cy="52" rx="2.5" ry="2" fill="#1A1A2E" transform="rotate(15 46 52)"/>
            <path d="M 37 46 Q 40 44 43 46" stroke="#1A1A2E" stroke-width="2" fill="none" stroke-linecap="round"/>
            <path d="M 47 47 Q 50 45 53 47" stroke="#1A1A2E" stroke-width="2" fill="none" stroke-linecap="round"/>
            <path d="M 34 62 Q 28 70 30 78" stroke="#9A9A9A" stroke-width="5" stroke-linecap="round" fill="none"/>
            <path d="M 56 62 Q 62 70 60 78" stroke="#9A9A9A" stroke-width="5" stroke-linecap="round" fill="none"/>
            <ellipse cx="45" cy="84" rx="7" ry="4" fill="#8A8A8A"/>
          </svg>
