<svg xmlns="http://www.w3.org/2000/svg" width="130" height="130" viewBox="0 0 130 130" fill="none">
            <ellipse cx="65" cy="96" rx="32" ry="34" fill="#ADADAD"/>
            <ellipse cx="65" cy="100" rx="18" ry="20" fill="#D8D8D0"/>
            <ellipse cx="49" cy="36" rx="7" ry="17" fill="#9A9A9A" transform="rotate(-8 49 36)"/>
            <ellipse cx="81" cy="36" rx="7" ry="17" fill="#9A9A9A" transform="rotate(8 81 36)"/>
            <ellipse cx="49" cy="37" rx="4" ry="10" fill="#C8A0A0" transform="rotate(-8 49 37)" opacity="0.6"/>
            <ellipse cx="81" cy="37" rx="4" ry="10" fill="#C8A0A0" transform="rotate(8 81 37)" opacity="0.6"/>
            <ellipse cx="65" cy="72" rx="22" ry="20" fill="#ADADAD"/>
            <ellipse cx="65" cy="70" rx="4" ry="3" fill="#1A1A2E"/>
            <path d="M 55 62 Q 58 58 61 62" stroke="#1A1A2E" stroke-width="2.5" fill="none" stroke-linecap="round"/>
            <path d="M 69 62 Q 72 58 75 62" stroke="#1A1A2E" stroke-width="2.5" fill="none" stroke-linecap="round"/>
            <line x1="38" y1="70" x2="54" y2="71" stroke="#888" stroke-width="1" stroke-linecap="round" opacity="0.5"/>
            <line x1="76" y1="71" x2="92" y2="70" stroke="#888" stroke-width="1" stroke-linecap="round" opacity="0.5"/>
            <path d="M 86 88 Q 96 76 92 62" stroke="#9A9A9A" stroke-width="7" stroke-linecap="round" fill="none"/>
            <rect x="84" y="40" width="30" height="36" rx="3" fill="#D4A96A"/>
            <rect x="86" y="44" width="26" height="30" rx="2" fill="#F5F0E8"/>
            <rect x="92" y="37" width="12" height="8" rx="2" fill="#B07840"/>
            <line x1="90" y1="52" x2="108" y2="52" stroke="#B0A090" stroke-width="1.5" stroke-linecap="round"/>
            <line x1="90" y1="58" x2="108" y2="58" stroke="#B0A090" stroke-width="1.5" stroke-linecap="round"/>
            <line x1="90" y1="64" x2="102" y2="64" stroke="#B0A090" stroke-width="1.5" stroke-linecap="round"/>
            <path d="M 90 51 L 92 53 L 96 49" stroke="#4A8A5A" stroke-width="1.5" fill="none" stroke-linecap="round"/>
            <path d="M 44 90 Q 38 102 42 112" stroke="#9A9A9A" stroke-width="7" stroke-linecap="round" fill="none"/>
            <ellipse cx="55" cy="126" rx="10" ry="5" fill="#8A8A8A"/>
            <ellipse cx="75" cy="126" rx="10" ry="5" fill="#8A8A8A"/>
          </svg>
