<svg xmlns="http://www.w3.org/2000/svg" width="90" height="90" viewBox="0 0 90 90" fill="none">
            <ellipse cx="24" cy="80" rx="6" ry="4" fill="#C8C8C8" opacity="0.5"/>
            <ellipse cx="50" cy="58" rx="20" ry="22" fill="#ADADAD"/>
            <ellipse cx="50" cy="62" rx="12" ry="13" fill="#D8D8D0"/>
            <ellipse cx="38" cy="26" rx="5" ry="11" fill="#9A9A9A" transform="rotate(-6 38 26)"/>
            <ellipse cx="62" cy="24" rx="5" ry="11" fill="#9A9A9A" transform="rotate(8 62 24)"/>
            <ellipse cx="38" cy="27" rx="3" ry="7" fill="#C8A0A0" transform="rotate(-6 38 27)" opacity="0.6"/>
            <ellipse cx="62" cy="25" rx="3" ry="7" fill="#C8A0A0" transform="rotate(8 62 25)" opacity="0.6"/>
            <ellipse cx="50" cy="44" rx="14" ry="13" fill="#ADADAD"/>
            <ellipse cx="51" cy="43" rx="2.5" ry="2" fill="#1A1A2E"/>
            <ellipse cx="43" cy="39" rx="4" ry="4" fill="white"/>
            <ellipse cx="55" cy="39" rx="4" ry="4" fill="white"/>
            <ellipse cx="42" cy="39" rx="2.5" ry="2.5" fill="#1A1A2E"/>
            <ellipse cx="54" cy="39" rx="2.5" ry="2.5" fill="#1A1A2E"/>
            <line x1="10" y1="44" x2="22" y2="44" stroke="#C8C8C8" stroke-width="2" stroke-linecap="round" opacity="0.6"/>
            <line x1="8" y1="50" x2="18" y2="50" stroke="#C8C8C8" stroke-width="2" stroke-linecap="round" opacity="0.4"/>
            <line x1="12" y1="38" x2="20" y2="38" stroke="#C8C8C8" stroke-width="2" stroke-linecap="round" opacity="0.3"/>
            <path d="M 36 58 Q 28 64 28 74" stroke="#9A9A9A" stroke-width="5" stroke-linecap="round" fill="none"/>
            <path d="M 64 56 Q 72 60 72 68" stroke="#9A9A9A" stroke-width="5" stroke-linecap="round" fill="none"/>
            <path d="M 42 76 Q 36 82 30 80" stroke="#9A9A9A" stroke-width="5" stroke-linecap="round" fill="none"/>
            <path d="M 58 76 Q 64 80 68 78" stroke="#8A8A8A" stroke-width="5" stroke-linecap="round" fill="none"/>
          </svg>
